REM DIRINDEX 1\2\6,1\2\7,1\2\8,1\3\9,1\3\10,1\3\11,1\4\12,1\4\13,1\4\14,1\5\15,1\5\16,1\5\17,1\5\18
REM DIRNAME folder01,folder02,folder03,folder04,folder05,folder06,folder07,folder08,folder09,folder10,folder11,folder12,folder13,folder14,folder15,folder16,folder17,folder18
TITLE ""
FILE "2Q_k_011-020.mp3" MP3
  TRACK 01 AUDIO
    TITLE "9:cjc019_1619"
    INDEX 01 00:00:00
  TRACK 02 AUDIO
    TITLE "0:"
    INDEX 01 00:02:22
  TRACK 03 AUDIO
    TITLE "10:cjc019_1620"
    INDEX 01 00:03:00
  TRACK 04 AUDIO
    TITLE "0:"
    INDEX 01 00:05:40
  TRACK 05 AUDIO
    TITLE "11:cjc019_1621"
    INDEX 01 00:06:16
  TRACK 06 AUDIO
    TITLE "11:cjc019_1622"
    INDEX 01 00:08:56
  TRACK 07 AUDIO
    TITLE "0:"
    INDEX 01 00:13:16
  TRACK 08 AUDIO
    TITLE "9:cjc019_1623"
    INDEX 01 00:14:02
  TRACK 09 AUDIO
    TITLE "0:"
    INDEX 01 00:15:60
  TRACK 10 AUDIO
    TITLE "10:cjc019_1624"
    INDEX 01 00:16:46
  TRACK 11 AUDIO
    TITLE "0:"
    INDEX 01 00:19:20
  TRACK 12 AUDIO
    TITLE "11:cjc019_1625"
    INDEX 01 00:19:71
  TRACK 13 AUDIO
    TITLE "11:cjc019_1626"
    INDEX 01 00:23:55
  TRACK 14 AUDIO
    TITLE "0:"
    INDEX 01 00:26:07
  TRACK 15 AUDIO
    TITLE "9:cjc019_1627"
    INDEX 01 00:26:60
  TRACK 16 AUDIO
    TITLE "0:"
    INDEX 01 00:29:09
  TRACK 17 AUDIO
    TITLE "10:cjc019_1628"
    INDEX 01 00:29:62
  TRACK 18 AUDIO
    TITLE "0:"
    INDEX 01 00:32:45
  TRACK 19 AUDIO
    TITLE "11:cjc019_1629"
    INDEX 01 00:33:24
  TRACK 20 AUDIO
    TITLE "11:cjc019_1630"
    INDEX 01 00:35:35
  TRACK 21 AUDIO
    TITLE "0:"
    INDEX 01 00:36:38
  TRACK 22 AUDIO
    TITLE "9:cjc019_1631"
    INDEX 01 00:37:12
  TRACK 23 AUDIO
    TITLE "0:"
    INDEX 01 00:39:31
  TRACK 24 AUDIO
    TITLE "10:cjc019_1632"
    INDEX 01 00:40:13
  TRACK 25 AUDIO
    TITLE "0:"
    INDEX 01 00:42:27
  TRACK 26 AUDIO
    TITLE "11:cjc019_1633"
    INDEX 01 00:43:01
  TRACK 27 AUDIO
    TITLE "11:cjc019_1634"
    INDEX 01 00:45:49
  TRACK 28 AUDIO
    TITLE "0:"
    INDEX 01 00:49:69
  TRACK 29 AUDIO
    TITLE "9:cjc019_1635"
    INDEX 01 00:50:42
  TRACK 30 AUDIO
    TITLE "0:"
    INDEX 01 00:53:33
  TRACK 31 AUDIO
    TITLE "10:cjc019_1636"
    INDEX 01 00:54:03
  TRACK 32 AUDIO
    TITLE "0:"
    INDEX 01 00:55:69
  TRACK 33 AUDIO
    TITLE "11:cjc019_1637"
    INDEX 01 00:56:41
  TRACK 34 AUDIO
    TITLE "11:cjc019_1638"
    INDEX 01 00:58:44
  TRACK 35 AUDIO
    TITLE "0:"
    INDEX 01 01:05:46
  TRACK 36 AUDIO
    TITLE "9:cjc019_1639"
    INDEX 01 01:06:28
  TRACK 37 AUDIO
    TITLE "0:"
    INDEX 01 01:08:25
  TRACK 38 AUDIO
    TITLE "10:cjc019_1640"
    INDEX 01 01:09:07
  TRACK 39 AUDIO
    TITLE "0:"
    INDEX 01 01:11:05
  TRACK 40 AUDIO
    TITLE "11:cjc019_1641"
    INDEX 01 01:11:56
  TRACK 41 AUDIO
    TITLE "11:cjc019_1642"
    INDEX 01 01:13:49
  TRACK 42 AUDIO
    TITLE "0:"
    INDEX 01 01:15:62
  TRACK 43 AUDIO
    TITLE "9:cjc019_1643"
    INDEX 01 01:16:38
  TRACK 44 AUDIO
    TITLE "0:"
    INDEX 01 01:19:23
  TRACK 45 AUDIO
    TITLE "10:cjc019_1644"
    INDEX 01 01:19:74
  TRACK 46 AUDIO
    TITLE "0:"
    INDEX 01 01:22:25
  TRACK 47 AUDIO
    TITLE "11:cjc019_1645"
    INDEX 01 01:23:05
  TRACK 48 AUDIO
    TITLE "11:cjc019_1646"
    INDEX 01 01:26:38
  TRACK 49 AUDIO
    TITLE "0:"
    INDEX 01 01:30:30
  TRACK 50 AUDIO
    TITLE "9:cjc019_1647"
    INDEX 01 01:31:10
  TRACK 51 AUDIO
    TITLE "0:"
    INDEX 01 01:32:64
  TRACK 52 AUDIO
    TITLE "10:cjc019_1648"
    INDEX 01 01:33:42
  TRACK 53 AUDIO
    TITLE "0:"
    INDEX 01 01:36:48
  TRACK 54 AUDIO
    TITLE "11:cjc019_1649"
    INDEX 01 01:37:22
  TRACK 55 AUDIO
    TITLE "11:cjc019_1650"
    INDEX 01 01:41:38
  TRACK 56 AUDIO
    TITLE "0:"
    INDEX 01 01:42:73
  TRACK 57 AUDIO
    TITLE "9:cjc019_1651"
    INDEX 01 01:43:54
  TRACK 58 AUDIO
    TITLE "0:"
    INDEX 01 01:45:14
  TRACK 59 AUDIO
    TITLE "10:cjc019_1652"
    INDEX 01 01:45:67
  TRACK 60 AUDIO
    TITLE "0:"
    INDEX 01 01:47:15
  TRACK 61 AUDIO
    TITLE "11:cjc019_1653"
    INDEX 01 01:47:58
  TRACK 62 AUDIO
    TITLE "11:cjc019_1654"
    INDEX 01 01:54:09
  TRACK 63 AUDIO
    TITLE "0:"
    INDEX 01 01:59:30
  TRACK 64 AUDIO
    TITLE "9:cjc019_1655"
    INDEX 01 02:00:12
  TRACK 65 AUDIO
    TITLE "0:"
    INDEX 01 02:01:54
  TRACK 66 AUDIO
    TITLE "10:cjc019_1656"
    INDEX 01 02:02:36
  TRACK 67 AUDIO
    TITLE "0:"
    INDEX 01 02:04:21
  TRACK 68 AUDIO
    TITLE "11:cjc019_1657"
    INDEX 01 02:05:03
  TRACK 69 AUDIO
    TITLE "11:cjc019_1658"
    INDEX 01 02:07:27
  TRACK 70 AUDIO
    TITLE "0:"
    INDEX 01 02:11:17
